<svg width="633" height="483" viewBox="0 0 633 483" fill="none" xmlns="http://www.w3.org/2000/svg">
<g clip-path="url(#clip0_14_91)">
<path d="M384.002 146.085C384.789 146.121 385.567 145.914 386.232 145.493C386.897 145.072 387.417 144.457 387.721 143.731C388.024 143.004 388.097 142.202 387.93 141.433C387.763 140.664 387.363 139.965 386.785 139.43C386.688 139.046 386.619 138.769 386.522 138.384C386.556 138.301 386.591 138.217 386.626 138.133C390.161 129.705 402.14 129.763 405.644 138.204C408.755 145.696 412.715 153.2 413.69 161.121C414.119 164.622 413.938 168.171 413.154 171.61C420.46 155.674 424.254 138.353 424.278 120.822C424.28 116.423 424.035 112.027 423.546 107.655C423.142 104.071 422.581 100.513 421.863 96.9795C417.947 77.8096 409.54 59.842 397.332 44.5521C391.424 41.3282 386.645 36.3705 383.641 30.3471C382.552 28.1819 381.783 25.8706 381.357 23.485C382.024 23.5724 383.87 13.4212 383.368 12.7984C384.296 11.3889 385.959 10.6882 386.974 9.31276C392.019 2.47223 398.97 3.66663 402.599 12.9624C410.351 16.8749 410.426 23.3635 405.67 29.604C402.643 33.5743 402.228 38.9466 399.572 43.1971C399.845 43.5468 400.13 43.8855 400.403 44.2352C405.396 50.6564 409.749 57.5515 413.397 64.8217C412.365 56.7584 413.889 47.0442 416.487 40.7823C419.445 33.6476 424.988 27.6387 429.87 21.4707C435.734 14.062 447.758 17.2953 448.791 26.687C448.801 26.7779 448.81 26.8688 448.82 26.9597C448.095 27.3688 447.385 27.8029 446.691 28.2623C445.818 28.8452 445.142 29.678 444.751 30.6516C444.36 31.6253 444.272 32.6944 444.499 33.7188C444.726 34.7432 445.257 35.6751 446.023 36.3925C446.789 37.1099 447.753 37.5793 448.79 37.7391L448.896 37.7555C448.638 40.3688 448.182 42.9587 447.531 45.5028C453.793 69.7218 440.273 78.5429 420.967 78.9392C420.541 79.1577 420.126 79.3762 419.7 79.5839C423.365 89.9723 425.665 100.793 426.54 111.775C427.035 118.253 427.006 124.761 426.452 131.235L426.485 131.006C427.884 123.807 431.724 117.311 437.358 112.616C445.724 105.743 457.545 103.212 466.572 97.6873C470.917 95.0279 476.484 98.4646 475.726 103.502C475.714 103.582 475.702 103.663 475.689 103.743C474.344 104.291 473.034 104.923 471.767 105.634C471.041 106.043 470.332 106.477 469.637 106.936C468.765 107.519 468.089 108.352 467.698 109.326C467.307 110.299 467.219 111.368 467.446 112.393C467.673 113.417 468.204 114.349 468.97 115.066C469.735 115.784 470.7 116.253 471.737 116.413L471.843 116.429C471.92 116.44 471.985 116.451 472.062 116.462C469.762 121.952 466.536 127.005 462.522 131.399C458.607 152.542 441.788 154.548 423.797 148.391H423.786C421.812 156.968 418.952 165.318 415.252 173.304H384.766C384.657 172.965 384.559 172.616 384.46 172.277C387.282 172.454 390.115 172.286 392.896 171.774C390.634 168.999 388.372 166.202 386.11 163.426C386.06 163.374 386.012 163.32 385.968 163.262C384.821 161.842 383.663 160.432 382.515 159.012L382.515 159.01C382.454 154.656 382.953 150.312 384.001 146.085L384.002 146.085Z" fill="#F2F2F2"/>
<path d="M481.884 68.064C476.215 47.397 521.935 29.6747 533.941 46.3178C535.61 43.9517 541.78 42.5144 544.611 43.2403C547.441 43.9661 549.822 45.7807 552.145 47.5373C555.339 49.9906 558.648 52.531 560.608 56.0586C562.582 59.5716 562.887 64.3622 560.231 67.4107C558.126 69.835 551.913 71.4028 548.748 72.0416C546.541 72.4916 544.683 72.8545 543.086 73.1158C541.636 71.0261 540.968 68.4923 541.199 65.959C540.124 66.6841 539.223 67.638 538.561 68.7523C537.898 69.8667 537.49 71.1139 537.367 72.4045C537.323 72.9416 555.208 138.746 555.208 138.746C553.059 139.969 550.799 140.985 548.458 141.78C543.826 134.702 540.279 126.971 537.933 118.844C537.394 124.278 537.462 129.756 538.136 135.175C538.495 138.214 539.008 141.232 539.675 144.219C518.422 148.806 486.457 147.296 472.549 127.786C472.547 127.705 472.545 127.624 472.542 127.544C472.532 126.774 472.253 126.031 471.755 125.444C471.257 124.856 470.571 124.46 469.813 124.323C469.055 124.186 468.273 124.317 467.601 124.694C466.929 125.07 466.408 125.668 466.129 126.386C465.792 127.247 465.481 127.992 465.204 128.584C461.154 114.097 466.394 97.3297 481.884 68.064Z" fill="#2F2E41"/>
<path d="M445.719 414.553V415.229C445.692 415.005 445.692 414.777 445.719 414.553Z" fill="#2F2E41"/>
<path d="M466.531 297.591C467.072 297.445 467.622 297.338 468.178 297.272C467.54 297.376 466.991 297.482 466.531 297.591Z" fill="#2F2E41"/>
<path d="M466.05 297.714C466.196 297.673 466.358 297.632 466.531 297.591C466.37 297.633 466.215 297.664 466.05 297.714Z" fill="#2F2E41"/>
<path d="M619.814 482.275H541.914C540.802 481.388 540.03 480.146 539.726 478.756C539.422 477.367 539.606 475.916 540.246 474.646C542.374 469.765 538.204 465.305 538.204 465.305C536.788 463.647 535.804 461.664 535.338 459.534C534.872 457.404 534.939 455.192 535.534 453.094C537.598 445.885 529.509 425.538 529.509 425.538C529.509 425.538 525.149 451.811 519.806 482.275H445.719C444.477 480.161 443.823 477.754 443.823 475.302C443.823 472.851 444.477 470.444 445.719 468.33C450.036 461.009 445.719 459.605 445.719 459.605C445.719 459.605 441.401 451.413 445.719 445.465C450.036 439.517 445.719 415.229 445.719 415.229C445.881 416.303 447.111 414.351 449.005 410.257C451.888 404.029 456.294 392.829 460.746 379.826C463.928 370.545 467.136 360.334 469.818 350.351H469.824C470.527 347.728 471.193 345.129 471.822 342.554C473.052 337.504 474.106 332.597 474.907 327.99C476.645 318.065 477.217 309.539 475.883 303.994C474.777 299.38 472.356 296.836 468.178 297.272C470.416 296.901 473.696 296.549 477.738 296.217C478.467 296.159 479.222 296.1 480.003 296.035C510.148 293.757 574.824 292.449 574.824 292.449L594.635 327.924L619.723 372.862C619.723 372.862 619.04 433.146 619.814 482.275Z" fill="#2F2E41"/>
<path d="M536.666 139.119L491.025 129.438L481.963 147.679L451.445 165.347C451.445 165.347 471.116 245.778 471.004 257.09C470.719 285.811 424.766 350.192 459.476 345.239C494.186 340.286 501.237 319.54 512.38 322.821C522.429 325.779 534.7 338.94 542.915 329.527C551.13 320.115 554.023 330.984 559.218 331.36C561.687 331.538 560.2 319.474 566.411 331.735C572.622 343.995 605.559 327.491 594.395 316.328C575.804 297.736 572.025 160.685 572.025 160.685L551.329 154.317L536.666 139.119Z" fill="#E6E6E6"/>
<path d="M450.582 431.212C452.416 429.025 453.324 426.209 453.113 423.363C452.903 420.517 451.59 417.865 449.454 415.973C449.014 415.595 448.543 415.254 448.046 414.954L455.678 377.502L438.036 366.943L433.129 419.378C432.043 421.533 431.702 423.987 432.157 426.356C432.613 428.726 433.84 430.878 435.647 432.477C436.684 433.376 437.889 434.063 439.191 434.498C440.494 434.932 441.869 435.106 443.239 435.009C444.608 434.912 445.945 434.546 447.173 433.932C448.402 433.318 449.497 432.469 450.397 431.432C450.46 431.359 450.521 431.286 450.582 431.212Z" fill="#A0616A"/>
<path d="M505.358 233.799C505.247 232.595 503.711 232.048 501.583 231.293C499.446 230.635 497.414 229.673 495.55 228.436C490.839 225.033 492.693 221.473 495.257 216.553C495.759 215.596 496.279 214.6 496.767 213.566C498.219 210.5 495.908 197.855 489.888 175.975C488.034 169.24 488.04 164.482 486.758 161.326C485.482 158.169 482.925 156.614 475.955 156.289C467.53 155.863 459.28 158.796 453.014 164.443C452.845 164.593 452.669 164.755 452.5 164.912C452.181 165.211 451.869 165.517 451.563 165.829C445.768 171.659 442.452 179.504 442.308 187.722L442.276 189.121L440.838 255.972L436.796 314.635L431.225 395.445L435.351 395.647L451.817 396.467L453.815 396.564L458.552 376.689L464.253 352.772L466.349 343.986L472.85 316.731L475.883 303.994L477.738 296.217L478.493 293.041L482.176 277.604C482.261 277.279 490.734 243.847 500.503 238.257C504.147 236.174 505.462 234.964 505.358 233.799Z" fill="#E6E6E6"/>
<path d="M614.96 430.814C612.902 428.837 611.697 426.134 611.601 423.282C611.505 420.43 612.525 417.653 614.446 415.541C614.843 415.118 615.274 414.729 615.735 414.377L604.126 377.961L620.532 365.569L631.041 417.174C632.352 419.2 632.956 421.602 632.757 424.007C632.559 426.412 631.57 428.683 629.945 430.467C629.01 431.473 627.887 432.285 626.638 432.857C625.39 433.429 624.041 433.749 622.669 433.8C621.297 433.85 619.929 433.63 618.641 433.152C617.354 432.674 616.174 431.947 615.168 431.012C615.098 430.947 615.029 430.881 614.96 430.814Z" fill="#A0616A"/>
<path d="M622.986 351.795C622.986 351.795 610.191 306.777 614.093 301.904C617.995 297.03 606.471 296.079 611.437 287.002C616.403 277.926 609.548 276.408 609.548 276.408L605.829 255.54L599.179 204.281L598.977 202.757L597.043 187.844C596.503 183.585 595.109 179.478 592.945 175.77C590.782 172.061 587.893 168.827 584.45 166.261C584.275 166.126 584.095 165.997 583.916 165.868C583.097 165.278 582.26 164.732 581.406 164.23C575.023 160.464 567.527 159.04 560.208 160.203C546.416 162.351 550.708 167.494 548.471 181.272C544.837 203.675 543.893 216.492 545.666 219.388C546.263 220.363 546.89 221.296 547.488 222.192C550.568 226.814 552.794 230.149 548.472 234.047C546.75 235.471 544.835 236.643 542.782 237.528C540.751 238.512 539.281 239.217 539.301 240.426C539.323 241.598 540.759 242.655 544.604 244.333C549.263 246.371 554.266 254.08 558.365 261.954C561.617 268.301 564.517 274.822 567.052 281.488L602.278 380.559L608.024 396.716L610.005 396.403L626.282 393.822L630.363 393.176L622.986 351.795Z" fill="#E6E6E6"/>
<path d="M517.41 128.753C537.975 128.753 554.646 112.082 554.646 91.5172C554.646 70.9522 537.975 54.281 517.41 54.281C496.845 54.281 480.174 70.9522 480.174 91.5172C480.174 112.082 496.845 128.753 517.41 128.753Z" fill="#A0616A"/>
<path d="M461.56 70.9673C455.892 50.3004 501.611 32.578 513.617 49.2212C515.287 46.855 521.456 45.4178 524.287 46.1436C527.118 46.8695 529.499 48.6841 531.821 50.4406C535.015 52.894 538.325 55.4344 540.285 58.962C542.259 62.475 542.564 67.2656 539.907 70.3141C537.802 72.7384 531.589 74.3062 528.424 74.9449C526.218 75.3949 524.36 75.7579 522.763 76.0191C521.312 73.9294 520.644 71.3956 520.876 68.8624C519.801 69.5874 518.9 70.5413 518.237 71.6557C517.575 72.7701 517.167 74.0173 517.043 75.3078C517 75.845 534.884 141.649 534.884 141.649C532.736 142.872 530.475 143.888 528.134 144.683C523.503 137.605 519.955 129.874 517.609 121.747C517.07 127.181 517.138 132.659 517.813 138.078C518.171 141.117 518.685 144.136 519.351 147.122C498.099 151.71 466.133 150.2 452.226 130.689C452.224 130.609 452.221 130.528 452.219 130.447C452.208 129.677 451.93 128.935 451.432 128.347C450.934 127.759 450.247 127.363 449.489 127.227C448.731 127.09 447.949 127.221 447.277 127.597C446.605 127.973 446.085 128.572 445.806 129.289C445.468 130.15 445.158 130.895 444.881 131.488C440.83 117 446.071 100.233 461.56 70.9673Z" fill="#2F2E41"/>
<path d="M276.892 199.635C276.105 199.671 275.327 199.464 274.662 199.043C273.996 198.622 273.477 198.007 273.173 197.28C272.87 196.554 272.796 195.752 272.964 194.983C273.131 194.214 273.531 193.515 274.109 192.98C274.206 192.595 274.275 192.319 274.372 191.934C274.338 191.851 274.303 191.767 274.268 191.683C270.733 183.255 258.754 183.313 255.25 191.754C252.139 199.245 248.179 206.75 247.204 214.671C246.775 218.172 246.956 221.721 247.739 225.16C240.434 209.224 236.64 191.903 236.616 174.372C236.614 169.973 236.859 165.577 237.348 161.205C237.752 157.621 238.313 154.063 239.031 150.53C242.946 131.36 251.354 113.392 263.562 98.1021C269.47 94.8782 274.249 89.9205 277.253 83.8971C278.341 81.7319 279.111 79.4206 279.537 77.035C278.87 77.1224 277.024 66.9712 277.526 66.3484C276.597 64.9388 274.935 64.2382 273.92 62.8627C268.875 56.0222 261.924 57.2166 258.295 66.5123C250.543 70.4248 250.468 76.9135 255.224 83.154C258.251 87.1243 258.666 92.4966 261.322 96.7471C261.048 97.0968 260.764 97.4355 260.491 97.7852C255.497 104.206 251.145 111.102 247.497 118.372C248.529 110.308 247.005 100.594 244.407 94.3323C241.449 87.1976 235.906 81.1887 231.024 75.0207C225.16 67.612 213.136 70.8453 212.103 80.237C212.093 80.3279 212.083 80.4188 212.074 80.5097C212.799 80.9188 213.509 81.3529 214.203 81.8123C215.076 82.3952 215.752 83.228 216.143 84.2016C216.534 85.1753 216.622 86.2444 216.395 87.2688C216.168 88.2931 215.637 89.2251 214.871 89.9425C214.105 90.6599 213.141 91.1293 212.104 91.2891L211.997 91.3055C212.256 93.9188 212.712 96.5087 213.363 99.0528C207.101 123.272 220.621 132.093 239.927 132.489C240.353 132.708 240.768 132.926 241.194 133.134C237.529 143.522 235.229 154.343 234.354 165.325C233.859 171.803 233.888 178.311 234.441 184.785L234.409 184.556C233.01 177.357 229.17 170.861 223.536 166.166C215.169 159.293 203.349 156.762 194.322 151.237C189.977 148.578 184.409 152.015 185.168 157.052C185.18 157.132 185.192 157.213 185.205 157.293C186.55 157.841 187.86 158.473 189.127 159.184C189.852 159.593 190.562 160.027 191.257 160.486C192.129 161.069 192.805 161.902 193.196 162.876C193.587 163.849 193.675 164.918 193.448 165.943C193.221 166.967 192.69 167.899 191.924 168.616C191.159 169.334 190.194 169.803 189.157 169.963L189.051 169.979C188.974 169.99 188.909 170.001 188.832 170.012C191.131 175.502 194.358 180.555 198.372 184.949C202.287 206.092 219.106 208.098 237.097 201.941H237.108C239.081 210.518 241.942 218.868 245.642 226.854H276.128C276.237 226.515 276.335 226.166 276.434 225.827C273.612 226.004 270.779 225.836 267.998 225.324C270.26 222.549 272.522 219.752 274.784 216.976C274.834 216.924 274.881 216.87 274.926 216.812C276.073 215.392 277.231 213.982 278.379 212.562L278.379 212.56C278.44 208.206 277.941 203.862 276.892 199.635L276.892 199.635Z" fill="#F2F2F2"/>
<path d="M134.641 46.3186C133.949 47.931 112.615 47.7582 111.638 49.194C104.104 60.279 131.261 107.442 123.728 118.542L122.678 119.793C125.136 118.66 127.497 117.328 129.737 115.81C129.939 111.267 130.14 106.709 130.356 102.166C132.612 105.053 134.433 108.255 135.761 111.669C137.515 110.433 138.954 108.141 146.472 103.633C149.516 100.289 153.025 97.4006 156.891 95.0562L134.641 46.3186Z" fill="#2F2E41"/>
<path d="M150.133 137.166C147.779 135.632 145.093 134.682 142.298 134.394C139.503 134.106 136.68 134.489 134.062 135.511C131.445 136.533 129.109 138.165 127.248 140.27C125.388 142.376 124.056 144.894 123.364 147.618L90.9427 232.093L35.2147 200.455C34.97 196.819 33.5799 193.353 31.2438 190.555C28.9077 187.757 25.7455 185.771 22.2109 184.882C18.6763 183.993 14.9508 184.245 11.5687 185.604C8.18662 186.963 5.32175 189.358 3.38495 192.445C1.44816 195.533 0.538966 199.155 0.787763 202.791C1.03656 206.427 2.43057 209.892 4.76986 212.687C7.10915 215.482 10.2735 217.464 13.8091 218.35C17.3448 219.235 21.07 218.978 24.4505 217.616C36.1864 230.141 87.0654 281.496 108.129 261.43C125.834 244.564 151.384 179.198 157.535 156.625C158.52 153.016 158.334 149.187 157.004 145.69C155.674 142.193 153.268 139.208 150.133 137.166Z" fill="#FFB6B6"/>
<path d="M89.2557 264.97L99.4867 311.213L174.3 317.98L181.175 277.715L89.2557 264.97Z" fill="#FFB6B6"/>
<path d="M203.534 383.554C203.5 384.217 203.459 384.873 203.411 385.536C202.693 395.118 201.873 406.169 200.985 418.279C199.584 437.497 198.019 459.38 196.44 482.275H39.5191L69.9522 390.801C69.9522 390.801 82.2404 384.036 75.9844 372.671C69.7283 361.305 82.038 370.362 82.1525 354.131C82.267 337.9 93.2977 320.632 93.2977 320.632L95.1088 296.056L96.1407 296.076L177.803 297.436L179.293 297.464L181.801 318.561C197.03 336.683 204.799 359.917 203.534 383.554Z" fill="#2F2E41"/>
<path d="M135.949 114.755L173.187 112.837L190.483 140.166C190.483 140.166 223.026 145.607 220.77 183.955C218.514 222.303 181.175 255.953 181.175 255.953L182.771 250.481L179.999 258.402L180.355 262.85L184.136 267.56L184.526 272.431L181.175 280.138C181.611 280.836 181.842 281.643 181.843 282.466C181.843 283.289 181.613 284.096 181.178 284.795C180.743 285.494 180.121 286.057 179.383 286.42C178.644 286.784 177.819 286.933 177 286.851L123.194 281.458C121.969 278.089 120.986 274.057 116.075 280.769L111.007 280.278L89.9364 278.236L88.6962 273.719C87.9915 271.152 87.8817 268.458 88.3751 265.842C88.8685 263.226 89.9521 260.757 91.5435 258.623C89.7133 252.892 90.1926 246.673 92.8795 241.29L92.9802 241.088L95.2178 239.223C95.2178 239.223 70.7381 202.446 98.84 174.746L110.119 155.572L122.739 140.175L135.949 114.755Z" fill="#198BAD"/>
<path d="M145.217 98.6219C164.719 98.6219 180.529 82.8122 180.529 63.31C180.529 43.8078 164.719 27.9981 145.217 27.9981C125.715 27.9981 109.905 43.8078 109.905 63.31C109.905 82.8122 125.715 98.6219 145.217 98.6219Z" fill="#FFB6B6"/>
<path d="M172.036 114.179C169.161 111.777 167.159 108.491 166.343 104.834C165.69 109.275 165.861 113.797 166.846 118.176C164.934 119.614 163.079 120.98 161.325 122.216C159.997 118.801 158.176 115.6 155.92 112.713C155.704 117.256 155.503 121.814 155.301 126.357C153.061 127.875 150.7 129.207 148.242 130.339L149.292 129.089C156.825 117.989 137.33 97.5592 144.863 86.4743C146.977 83.3688 137.43 58.8268 130.155 57.7198C123.686 56.7421 123.959 58.6111 117.69 59.977C117.039 57.2621 116.029 54.6463 114.685 52.1988C115.043 54.926 114.961 57.6929 114.441 60.3939C112.213 60.4802 110.459 59.0602 108.086 58.6974C92.9471 56.3827 94.4855 40.007 98.698 34.8168C102.925 29.641 116.957 28.0882 123.427 26.406C124.016 25.831 125.353 26.1904 125.943 25.6441C138.342 14.2967 154.925 12.4175 169.848 17.4469C185.762 22.8104 195.684 33.191 200.777 49.194L202.237 62.0005C203.548 66.1183 201.899 85.2776 200.777 89.4504C196.413 105.671 187.12 97.5736 172.036 114.179Z" fill="#2F2E41"/>
<path d="M223.524 281.478L222.134 173.207C222.062 168.62 220.189 164.246 216.919 161.028C213.65 157.809 209.246 156.006 204.659 156.006C202.286 156.006 199.937 156.489 197.757 157.426C195.577 158.363 193.61 159.735 191.977 161.457C190.344 163.179 189.079 165.216 188.259 167.442C187.438 169.669 187.08 172.04 187.206 174.41L192.098 286.833L192.191 355.27C189.308 356.493 186.871 358.574 185.211 361.23C183.552 363.886 182.75 366.988 182.915 370.115C183.08 373.243 184.204 376.244 186.134 378.71C188.064 381.177 190.706 382.989 193.702 383.902C196.698 384.814 199.902 384.782 202.879 383.81C205.856 382.838 208.462 380.973 210.342 378.468C212.222 375.964 213.286 372.941 213.389 369.811C213.491 366.681 212.628 363.595 210.916 360.973L223.524 281.478Z" fill="#FFB6B6"/>
<path d="M405.773 421.555C405.773 421.555 403.623 460.224 402.635 482.278H328.616C327.092 462.208 326.579 447.463 326.579 447.463L322.529 482.278H247.71L243.071 417.799L265.487 362.235C265.487 362.235 386.962 353.811 398.23 364.498C409.491 375.178 405.773 421.555 405.773 421.555Z" fill="#2F2E41"/>
<path d="M340.318 96.2672C362.648 96.2672 380.75 78.1653 380.75 55.8355C380.75 33.5058 362.648 15.4039 340.318 15.4039C317.988 15.4039 299.886 33.5058 299.886 55.8355C299.886 78.1653 317.988 96.2672 340.318 96.2672Z" fill="#FFB6B6"/>
<path d="M387.445 42.6978C383.292 44.5914 380.601 58.306 377.337 55.1177C374.073 51.9293 374.291 47.7801 369.89 46.6035C366.337 45.6492 362.512 46.7398 359.271 48.4599C358.692 48.7634 358.131 49.0934 357.584 49.4216C357.223 49.1803 356.864 48.9534 356.478 48.744C353.578 47.1923 350.194 46.8117 347.022 47.6804C349.529 48.5199 351.708 50.126 353.251 52.2715C352.166 52.9986 351.067 53.7275 349.943 54.3733C340.553 59.7923 327.191 48.009 317.307 43.5823C323.498 55.2004 320.45 60.012 315.074 72.0275L314.889 72.7117C315.194 69.7003 305.875 67.456 306.416 71.6953C306.799 74.7051 309.404 81.3952 310.863 84.0526C300.471 72.0365 293.369 57.3321 294.868 42.1633C295.194 38.9768 295.096 35.6147 296.739 32.849C298.385 30.0976 301.815 28.1668 304.849 29.216C304.592 24.3785 305.651 19.5617 307.913 15.2778C310.174 10.9939 313.555 7.40288 317.694 4.88662C321.834 2.37036 326.578 1.02288 331.422 0.98742C336.266 0.951964 341.029 2.22987 345.205 4.68527C349.086 6.96217 352.325 10.1824 355.882 12.9602C359.438 15.7379 363.538 18.1591 368.047 18.3884C370.908 18.5264 374.022 17.8279 376.479 19.3097C379.327 21.029 379.814 24.6287 380.241 28.0926C377.702 28.3429 375.295 29.3447 373.327 30.9699C375.955 30.7019 378.6 31.2692 380.887 32.5913C380.93 32.6109 380.971 32.6345 381.01 32.6616C382.516 38.3862 382.361 39.6552 387.445 42.6978Z" fill="#2F2E41"/>
<path d="M247.889 381.796C282.32 341.494 270.69 290.233 257.025 238.488L259.625 162.045C259.753 158.295 260.781 154.631 262.623 151.362C264.464 148.093 267.065 145.315 270.206 143.263L305.356 120.3L319.037 100.52L356.748 104.291L377.66 126.406L400.808 144.077C406.62 148.514 411.042 154.521 413.553 161.388C416.064 168.255 416.56 175.697 414.981 182.837L392.83 283.014C392.83 283.014 402.095 334.946 396.441 340.681C390.788 346.417 376.222 340.684 387.773 347.123C401.636 354.849 414.24 353.424 407.225 360.439C400.21 367.454 409.088 377.207 409.088 377.207L247.889 381.796Z" fill="#F1921C" fill-opacity="0.8"/>
<path d="M262.61 440.369L268.35 399.474L245.447 392.936L240.916 436.388C239.021 438.126 237.648 440.358 236.951 442.834C236.255 445.31 236.263 447.93 236.974 450.402C237.686 452.873 239.072 455.097 240.979 456.823C242.885 458.55 245.234 459.71 247.764 460.174C250.293 460.638 252.902 460.388 255.297 459.451C257.692 458.513 259.778 456.927 261.32 454.869C262.863 452.811 263.8 450.364 264.028 447.803C264.256 445.241 263.765 442.667 262.61 440.369Z" fill="#FFB6B6"/>
<path d="M306.215 127.672C306.215 127.672 241.021 148.89 239.467 164.415C237.912 179.941 238.428 189.445 231.547 251.57L231.909 418.92C231.909 418.92 275.618 428.278 271.135 418.273C266.653 408.267 268.217 403.56 268.217 403.56C268.217 403.56 277.588 399.862 275.242 388.114C272.897 376.366 284.66 318.146 284.66 318.146L292.085 213.732L306.215 127.672Z" fill="#F1921C" fill-opacity="0.8"/>
<path d="M386.601 438.203L383.546 397.021L406.828 391.994L408.509 435.649C410.286 437.507 411.511 439.824 412.044 442.34C412.577 444.856 412.397 447.471 411.526 449.89C410.655 452.31 409.125 454.438 407.111 456.036C405.096 457.634 402.675 458.639 400.121 458.937C397.566 459.234 394.98 458.814 392.651 457.722C390.323 456.63 388.345 454.911 386.94 452.757C385.536 450.603 384.76 448.099 384.7 445.528C384.64 442.957 385.298 440.421 386.601 438.203Z" fill="#FFB6B6"/>
<path d="M363.529 123.324C363.529 123.324 427.196 148.759 427.733 164.353C428.269 179.946 427.133 189.396 429.938 251.839L418.638 418.807C418.638 418.807 374.411 425.288 379.538 415.597C384.665 405.906 383.412 401.106 383.412 401.106C383.412 401.106 374.303 396.804 377.411 385.234C380.52 373.664 372.587 314.8 372.587 314.8L372.003 210.124L363.529 123.324Z" fill="#F1921C" fill-opacity="0.8"/>
</g>
<rect y="0.325531" width="630.532" height="481.949" fill="#13576C" fill-opacity="0.35"/>
<defs>
<clipPath id="clip0_14_91">
<rect width="632.04" height="481.198" fill="white" transform="translate(0.754219 1.07976)"/>
</clipPath>
</defs>
</svg>
