<svg width="76" height="54" viewBox="0 0 76 54" fill="none" xmlns="http://www.w3.org/2000/svg">
<g filter="url(#filter0_d_82_46)">
<ellipse cx="22.7697" cy="32.5976" rx="12" ry="12.5" transform="rotate(14.4647 22.7697 32.5976)" fill="#606060"/>
<path d="M20.2688 10.2651C22.9356 8.88608 27.8909 10.6785 23.7519 14.7782C19.6128 18.8778 14.7274 22.6579 15.1722 26.9065C15.6169 31.1551 19.076 35.6645 19.6733 36.3354C20.2629 36.9975 11.8949 37.468 12.1327 38.5911C12.2118 38.7955 12.226 38.83 12.1465 38.6355C12.1404 38.6206 12.1358 38.6058 12.1327 38.5911C11.7419 37.5812 9.76704 32.425 9.68604 30.2553C9.58864 27.6465 9.74104 27.0557 10.241 25.1177C10.7409 23.1797 10.6159 23.6642 12.2131 20.4591C13.8102 17.254 14.1392 17.3388 14.9075 15.9868C15.6758 14.6347 17.6019 11.6441 20.2688 10.2651Z" fill="#606060"/>
</g>
<g filter="url(#filter1_d_82_46)">
<ellipse cx="58.6785" cy="38.8935" rx="12" ry="12.5" transform="rotate(14.4647 58.6785 38.8935)" fill="#606060"/>
<path d="M56.1775 16.5609C58.8444 15.1819 63.7997 16.9744 59.6606 21.074C55.5216 25.1736 50.6361 28.9537 51.0809 33.2023C51.5257 37.451 54.9847 41.9604 55.582 42.6312C56.1716 43.2934 47.8037 43.7638 48.0415 44.8869C48.1206 45.0913 48.1348 45.1259 48.0553 44.9314C48.0492 44.9164 48.0446 44.9016 48.0415 44.8869C47.6506 43.877 45.6758 38.7208 45.5948 36.5512C45.4974 33.9423 45.6498 33.3515 46.1497 31.4135C46.6496 29.4755 46.5247 29.96 48.1218 26.7549C49.719 23.5498 50.048 23.6347 50.8163 22.2826C51.5846 20.9305 53.5107 17.9399 56.1775 16.5609Z" fill="#606060"/>
</g>
<defs>
<filter id="filter0_d_82_46" x="0.658264" y="0.806091" width="34.1462" height="44.2639" filterUnits="userSpaceOnUse" color-interpolation-filters="sRGB">
<feFlood flood-opacity="0" result="BackgroundImageFix"/>
<feColorMatrix in="SourceAlpha" type="matrix" values="0 0 0 0 0 0 0 0 0 0 0 0 0 0 0 0 0 0 127 0" result="hardAlpha"/>
<feOffset dx="-5" dy="-5"/>
<feGaussianBlur stdDeviation="2"/>
<feComposite in2="hardAlpha" operator="out"/>
<feColorMatrix type="matrix" values="0 0 0 0 0 0 0 0 0 0 0 0 0 0 0 0 0 0 0.2 0"/>
<feBlend mode="normal" in2="BackgroundImageFix" result="effect1_dropShadow_82_46"/>
<feBlend mode="normal" in="SourceGraphic" in2="effect1_dropShadow_82_46" result="shape"/>
</filter>
<filter id="filter1_d_82_46" x="36.567" y="7.10193" width="34.1462" height="44.2639" filterUnits="userSpaceOnUse" color-interpolation-filters="sRGB">
<feFlood flood-opacity="0" result="BackgroundImageFix"/>
<feColorMatrix in="SourceAlpha" type="matrix" values="0 0 0 0 0 0 0 0 0 0 0 0 0 0 0 0 0 0 127 0" result="hardAlpha"/>
<feOffset dx="-5" dy="-5"/>
<feGaussianBlur stdDeviation="2"/>
<feComposite in2="hardAlpha" operator="out"/>
<feColorMatrix type="matrix" values="0 0 0 0 0 0 0 0 0 0 0 0 0 0 0 0 0 0 0.2 0"/>
<feBlend mode="normal" in2="BackgroundImageFix" result="effect1_dropShadow_82_46"/>
<feBlend mode="normal" in="SourceGraphic" in2="effect1_dropShadow_82_46" result="shape"/>
</filter>
</defs>
</svg>
