<svg width="62" height="47" viewBox="0 0 62 47" fill="none" xmlns="http://www.w3.org/2000/svg">
<ellipse cx="16.6785" cy="24.8935" rx="12" ry="12.5" transform="rotate(14.4647 16.6785 24.8935)" fill="#808080"/>
<path d="M14.1776 2.56093C16.8444 1.18192 21.7998 2.97435 17.6607 7.074C13.5216 11.1736 8.6362 14.9537 9.08098 19.2023C9.52575 23.451 12.9848 27.9604 13.5821 28.6312C14.1717 29.2934 5.80372 29.7638 6.04153 30.8869C6.12064 31.0913 6.13486 31.1259 6.05535 30.9314C6.04924 30.9164 6.04465 30.9016 6.04153 30.8869C5.65069 29.877 3.67586 24.7208 3.59485 22.5512C3.49745 19.9423 3.64985 19.3515 4.14978 17.4135C4.64971 15.4755 4.52473 15.96 6.1219 12.7549C7.71906 9.54981 8.04804 9.63468 8.81633 8.28261C9.58462 6.93054 11.5107 3.93994 14.1776 2.56093Z" fill="#606060"/>
<ellipse cx="44.5873" cy="31.1894" rx="12" ry="12.5" transform="rotate(14.4647 44.5873 31.1894)" fill="#808080"/>
<path d="M42.0863 8.85678C44.7532 7.47777 49.7085 9.2702 45.5694 13.3698C41.4304 17.4695 36.5449 21.2496 36.9897 25.4982C37.4345 29.7468 40.8935 34.2562 41.4908 34.9271C42.0804 35.5892 33.7125 36.0597 33.9503 37.1828C34.0294 37.3872 34.0436 37.4217 33.9641 37.2272C33.958 37.2123 33.9534 37.1975 33.9503 37.1828C33.5594 36.1729 31.5846 31.0167 31.5036 28.847C31.4062 26.2382 31.5586 25.6474 32.0585 23.7094C32.5585 21.7714 31.9028 22.2051 33.5 19C35.0972 15.7949 35.5 15.5 36.5 14C37.5 12.5 39.4195 10.2358 42.0863 8.85678Z" fill="#606060"/>
</svg>
